<svg width="41" height="41" viewBox="0 0 41 41" xmlns="http://www.w3.org/2000/svg">
<path fill-rule="evenodd" clip-rule="evenodd" d="M4.4612 5.7742C3.58252 6.65288 3.58252 8.06709 3.58252 10.8955V30.1045C3.58252 32.9329 3.58252 34.3471 4.4612 35.2258C5.33988 36.1045 6.75409 36.1045 9.58252 36.1045H31.4175C34.2459 36.1045 35.6601 36.1045 36.5388 35.2258C37.4175 34.3471 37.4175 32.9329 37.4175 30.1045V10.8955C37.4175 8.0671 37.4175 6.65288 36.5388 5.7742C35.6601 4.89552 34.2459 4.89552 31.4175 4.89552H9.58252C6.75409 4.89552 5.33988 4.89552 4.4612 5.7742ZM27.267 14.2985C27.8193 14.2985 28.267 14.7462 28.267 15.2985V29.1692C28.267 29.7214 27.8193 30.1692 27.267 30.1692C26.7147 30.1692 26.267 29.7214 26.267 29.1692V15.2985C26.267 14.7462 26.7147 14.2985 27.267 14.2985ZM14.733 18.7662C14.733 18.2139 14.2853 17.7662 13.733 17.7662C13.1807 17.7662 12.733 18.2139 12.733 18.7662V29.1692C12.733 29.7214 13.1807 30.1692 13.733 30.1692C14.2853 30.1692 14.733 29.7214 14.733 29.1692V18.7662ZM21.5 22.2338C21.5 21.6816 21.0523 21.2338 20.5 21.2338C19.9477 21.2338 19.5 21.6816 19.5 22.2338V29.1692C19.5 29.7214 19.9477 30.1692 20.5 30.1692C21.0523 30.1692 21.5 29.7214 21.5 29.1692V22.2338Z"/>
</svg>
