<svg width="41" height="41" viewBox="0 0 41 41" fill="none" xmlns="http://www.w3.org/2000/svg">
<path fill-rule="evenodd" clip-rule="evenodd" d="M20.8965 33.9761C22.9685 32.9421 32.4584 27.7187 32.4584 18.7917C32.4584 12.1873 27.1044 6.83333 20.5 6.83333C13.8956 6.83333 8.54169 12.1873 8.54169 18.7917C8.54169 27.7187 18.0316 32.9421 20.1036 33.9761C20.3585 34.1033 20.6416 34.1033 20.8965 33.9761ZM20.5 23.9167C23.3305 23.9167 25.625 21.6221 25.625 18.7917C25.625 15.9612 23.3305 13.6667 20.5 13.6667C17.6696 13.6667 15.375 15.9612 15.375 18.7917C15.375 21.6221 17.6696 23.9167 20.5 23.9167Z"/>
</svg>
